<?xml version="1.0" encoding="UTF-8" standalone="no"?>
<!-- Generator: Adobe Illustrator 16.0.0, SVG Export Plug-In . SVG Version: 6.00 Build 0)  -->

<svg
   xmlns:dc="http://purl.org/dc/elements/1.1/"
   xmlns:cc="http://creativecommons.org/ns#"
   xmlns:rdf="http://www.w3.org/1999/02/22-rdf-syntax-ns#"
   xmlns:svg="http://www.w3.org/2000/svg"
   xmlns="http://www.w3.org/2000/svg"
   xmlns:sodipodi="http://sodipodi.sourceforge.net/DTD/sodipodi-0.dtd"
   xmlns:inkscape="http://www.inkscape.org/namespaces/inkscape"
   version="1.1"
   id="Capa_1"
   x="0px"
   y="0px"
   width="612px"
   height="612px"
   viewBox="0 0 612 612"
   style="enable-background:new 0 0 612 612;"
   xml:space="preserve"
   sodipodi:docname="clock.svg"
   inkscape:version="0.92.4 5da689c313, 2019-01-14"><metadata
   id="metadata4700"><rdf:RDF><cc:Work
       rdf:about=""><dc:format>image/svg+xml</dc:format><dc:type
         rdf:resource="http://purl.org/dc/dcmitype/StillImage" /></cc:Work></rdf:RDF></metadata><defs
   id="defs4698" /><sodipodi:namedview
   pagecolor="#ffffff"
   bordercolor="#666666"
   borderopacity="1"
   objecttolerance="10"
   gridtolerance="10"
   guidetolerance="10"
   inkscape:pageopacity="0"
   inkscape:pageshadow="2"
   inkscape:window-width="2880"
   inkscape:window-height="1666"
   id="namedview4696"
   showgrid="false"
   inkscape:zoom="1.7129124"
   inkscape:cx="250.82115"
   inkscape:cy="333.97761"
   inkscape:window-x="0"
   inkscape:window-y="31"
   inkscape:window-maximized="1"
   inkscape:current-layer="Capa_1" />
<g
   id="g4663">
	<g
   id="g4661">
		<path
   d="M140.734,433.628H81.651C128.112,524.382,222.539,586.5,331.5,586.5C486.412,586.5,612,460.912,612,306    c0-154.913-125.588-280.5-280.5-280.5C194.004,25.5,79.611,124.44,55.616,255H0l76.5,102L153,255h-45.313    C130.892,152.796,222.284,76.5,331.5,76.5C458.261,76.5,561,179.239,561,306S458.261,535.5,331.5,535.5    C251.991,535.5,181.917,495.057,140.734,433.628z"
   id="path4657" />
		<polygon
   points="318.75,128.316 318.75,314.925 451.631,393.235 464.585,371.28 344.25,299.727 344.25,128.316   "
   id="polygon4659" />
	</g>
</g>
<g
   id="g4665">
</g>
<g
   id="g4667">
</g>
<g
   id="g4669">
</g>
<g
   id="g4671">
</g>
<g
   id="g4673">
</g>
<g
   id="g4675">
</g>
<g
   id="g4677">
</g>
<g
   id="g4679">
</g>
<g
   id="g4681">
</g>
<g
   id="g4683">
</g>
<g
   id="g4685">
</g>
<g
   id="g4687">
</g>
<g
   id="g4689">
</g>
<g
   id="g4691">
</g>
<g
   id="g4693">
</g>
<path
   style="fill:#ffffff;fill-opacity:0;stroke:#2b0000;stroke-width:0;stroke-miterlimit:4;stroke-dasharray:none;stroke-opacity:0.89803922"
   d="M 293.69564,582.69801 C 256.00773,577.82374 211.05612,560.63984 175.82034,537.6372 153.69149,523.19105 112.94462,481.5536 97.088627,457.18475 l -13.498566,-20.74577 27.962599,-0.77604 27.96259,-0.77603 6.48306,8.55569 c 31.32462,41.3392 74.85397,70.84787 126.31965,85.63246 29.44184,8.45779 88.88154,8.40069 118.73967,-0.1141 85.55327,-24.39748 148.92893,-91.77495 166.08222,-176.56931 6.66756,-32.95991 4.27934,-84.76917 -5.27038,-114.33402 -12.49082,-38.67023 -29.8837,-67.54927 -57.035,-94.70057 -90.4868,-90.486787 -237.74088,-90.233056 -327.20667,0.56381 -27.38647,27.79392 -53.41065,73.46204 -59.65526,104.68508 l -1.52085,7.60422 h 21.06992 c 11.58845,0 21.06992,0.60349 21.06992,1.34109 0,0.7376 -16.19967,22.91248 -35.99926,49.27751 L 76.593021,354.7652 40.150182,306.13599 3.7073435,257.50678 30.76808,256.77074 c 24.673016,-0.67109 27.060734,-1.17411 27.060734,-5.70088 0,-2.73066 3.036611,-14.65241 6.748028,-26.49277 C 95.673688,125.3702 178.12491,51.044756 278.12439,32.075179 c 27.72232,-5.258837 78.85601,-5.258837 106.57834,0 105.64121,20.039795 189.49559,99.943291 217.99023,207.719471 8.46987,32.03582 9.55023,85.47173 2.42497,119.94344 -10.93743,52.91492 -33.55057,97.14369 -68.83996,134.64334 -64.7906,68.84855 -150.85111,100.18046 -242.58233,88.31658 z"
   id="path5245"
   inkscape:connector-curvature="0" /><path
   style="fill:#ffffff;fill-opacity:1;stroke:#ffffff;stroke-width:0;stroke-miterlimit:4;stroke-dasharray:none;stroke-opacity:0.79512197"
   d="M 304.18475,578.8603 C 300.61907,578.22712 290.7,576.49474 282.14237,575.01062 259.41478,571.069 235.86253,563.02307 210.4435,550.51677 179.66853,535.37532 167.50846,526.5293 140.92004,499.94088 120.99256,480.01341 94.133898,446.71921 94.133898,441.94442 c 0,-0.8886 9.627332,-1.58763 21.394072,-1.55342 l 21.39406,0.0622 14.728,17.7591 c 27.8056,33.52813 76.04953,63.91847 120.25944,75.75509 29.37458,7.86467 89.29946,7.83612 119.14816,-0.0568 45.67861,-12.0788 94.8037,-44.04942 124.00728,-80.70395 17.16081,-21.53921 38.21851,-63.28476 44.43081,-88.08124 2.32259,-9.27076 4.91267,-29.1089 5.75573,-44.08475 C 569.39886,247.36552 545.75432,185.8447 494.42728,136.76292 448.46795,92.81406 395.01382,71.371403 331.41356,71.371403 c -65.77772,0 -124.40189,24.715511 -168.92298,71.216667 -27.5449,28.76993 -51.45439,70.55885 -59.08506,103.26862 l -3.625209,15.53987 h 19.219169 c 19.09838,0 22.32479,1.68054 15.82499,8.24274 -1.86679,1.88471 -15.42987,19.4723 -30.14018,39.08353 -14.710301,19.61123 -27.47805,35.60655 -28.372773,35.54517 -1.998247,-0.13713 -57.086609,-73.9004 -59.090253,-79.12181 -1.175367,-3.06296 2.0829,-3.74963 17.79209,-3.74963 11.471619,0 20.883464,-1.3079 23.326578,-3.24153 2.252591,-1.78283 5.574329,-9.65974 7.381638,-17.50423 18.523041,-80.3979 84.61038,-156.64509 163.33268,-188.442438 55.12795,-22.267164 127.6972,-24.974566 184.991,-6.901615 69.77454,22.009917 127.68418,71.658793 160.98417,138.019913 80.68953,160.80035 -12.06968,352.46819 -189.15823,390.85659 -18.10455,3.92461 -69.38836,6.86091 -81.68644,4.677 z"
   id="path5247"
   inkscape:connector-curvature="0" /><path
   style="fill:#ffffff;fill-opacity:1;stroke:#000000;stroke-width:3;stroke-miterlimit:4;stroke-dasharray:none;stroke-opacity:0.79607843"
   d="m 385.30614,354.02727 -66.25595,-39.04789 -0.0518,-93.23808 -0.0518,-93.23809 h 12.59092 12.59092 v 85.63572 37.36395 48.27177 l 59.28979,35.24969 c 32.60938,19.38734 59.67782,35.48958 60.15209,35.78276 l 0.8623,0.53306 -6.38601,10.82058 c -3.5123,5.95134 -6.38853,11.04846 -6.4156,11.07426 -0.0271,0.0258 -3.32108,-1.67686 -66.3248,-39.20773 z"
   id="path5255"
   inkscape:connector-curvature="0"
   sodipodi:nodetypes="cccccccccscccccc" /></svg>